<?xml version="1.0" encoding="UTF-8"?>
<svg xmlns="http://www.w3.org/2000/svg" xmlns:xlink="http://www.w3.org/1999/xlink" width="512px" height="385px" viewBox="0 0 511 385" version="1.1">
<g id="surface1">
<path style=" stroke:none;fill-rule:nonzero;fill:rgb(2.352941%,1.568627%,12.156863%);fill-opacity:1;" d="M 213.183594 208.585938 L 213.183594 175.488281 L 221.367188 175.488281 L 221.367188 180.890625 C 222.605469 178.949219 224.460938 177.347656 226.558594 176.390625 C 229.050781 175.1875 231.785156 174.628906 234.582031 174.628906 C 241.328125 174.628906 245.359375 176.988281 246.757812 181.6875 C 247.316406 183.429688 247.554688 185.847656 247.554688 188.949219 L 247.554688 208.546875 L 239.273438 208.546875 L 239.273438 190.988281 C 239.273438 188.347656 238.972656 186.429688 238.332031 185.386719 C 237.335938 183.386719 235.101562 182.386719 231.6875 182.386719 C 229.691406 182.386719 227.695312 182.886719 225.859375 183.789062 C 224.121094 184.546875 222.605469 185.789062 221.566406 187.386719 L 221.566406 208.585938 Z M 213.183594 208.585938 "/>
<path style=" stroke:none;fill-rule:nonzero;fill:rgb(2.352941%,1.568627%,12.156863%);fill-opacity:1;" d="M 284.085938 209.625 C 279.953125 209.625 277.457031 208.226562 276.5 205.386719 C 273.964844 208.425781 269.972656 209.988281 264.480469 209.988281 C 260.289062 209.988281 256.996094 209.027344 254.703125 207.148438 C 252.445312 205.347656 251.148438 202.585938 251.25 199.6875 C 251.25 194.847656 253.742188 191.6875 258.695312 190.25 C 261.828125 189.347656 265.78125 188.886719 270.472656 188.886719 C 272.109375 188.886719 273.703125 189.046875 275.300781 189.289062 L 275.300781 188.25 C 275.359375 186.847656 274.863281 185.429688 273.964844 184.386719 C 272.765625 183.148438 270.511719 182.546875 267.175781 182.546875 C 261.925781 182.546875 257.636719 183.847656 254.242188 186.488281 L 254.003906 186.488281 L 254.003906 178.988281 C 258.035156 176.390625 263.023438 175.027344 268.972656 175.027344 C 273.765625 175.027344 277.355469 175.949219 279.753906 177.789062 C 281.050781 178.789062 282.046875 180.089844 282.648438 181.628906 C 283.246094 183.1875 283.546875 185.226562 283.546875 187.886719 C 283.546875 188.6875 283.546875 190.148438 283.484375 192.1875 C 283.484375 194.246094 283.445312 195.6875 283.445312 196.546875 C 283.445312 198.988281 283.546875 200.425781 283.785156 200.949219 C 284.144531 201.886719 285.042969 202.347656 286.441406 202.347656 C 287.335938 202.347656 288.234375 202.246094 289.074219 201.949219 L 289.074219 208.746094 C 287.9375 209.347656 286.238281 209.625 284.085938 209.625 Z M 275.359375 195.386719 C 273.765625 195.148438 272.167969 195.027344 270.570312 195.027344 C 268.214844 194.988281 265.917969 195.1875 263.683594 195.6875 C 261.089844 196.289062 259.730469 197.546875 259.730469 199.546875 C 259.730469 202.1875 261.886719 203.546875 266.238281 203.546875 C 270.332031 203.546875 273.363281 202.347656 275.421875 199.886719 C 275.359375 199.027344 275.359375 197.546875 275.359375 195.386719 Z M 275.359375 195.386719 "/>
<path style=" stroke:none;fill-rule:nonzero;fill:rgb(2.352941%,1.568627%,12.156863%);fill-opacity:1;" d="M 294.285156 211.285156 L 294.523438 211.285156 C 298.375 214.148438 303.304688 215.546875 309.292969 215.546875 C 313.945312 215.546875 317.277344 214.488281 319.234375 212.386719 C 320.574219 210.988281 321.230469 208.6875 321.230469 205.425781 L 321.230469 202.988281 C 320.273438 204.546875 318.675781 205.847656 316.378906 206.945312 C 313.886719 208.027344 311.25 208.585938 308.496094 208.546875 C 303.207031 208.546875 298.914062 207.1875 295.523438 204.488281 C 292.128906 201.789062 290.433594 197.828125 290.433594 192.628906 C 290.390625 189.828125 290.929688 187.027344 292.128906 184.488281 C 293.125 182.289062 294.664062 180.390625 296.660156 178.949219 C 298.457031 177.628906 300.511719 176.628906 302.609375 175.988281 C 304.703125 175.347656 306.839844 175.027344 309.035156 175.027344 C 311.691406 174.988281 314.285156 175.488281 316.78125 176.429688 C 319.074219 177.390625 320.613281 178.550781 321.371094 179.988281 L 321.371094 175.988281 L 329.355469 175.988281 L 329.355469 205.046875 C 329.355469 209.746094 328.515625 213.386719 326.761719 215.988281 C 323.667969 220.546875 317.816406 222.847656 309.355469 222.847656 C 306.359375 222.886719 303.367188 222.546875 300.453125 221.847656 C 297.816406 221.1875 295.78125 220.347656 294.324219 219.386719 Z M 320.972656 187.289062 C 320.132812 185.628906 318.675781 184.289062 316.941406 183.546875 C 314.945312 182.628906 312.746094 182.1875 310.492188 182.1875 C 307.558594 182.089844 304.703125 182.988281 302.308594 184.75 C 300.074219 186.429688 298.914062 188.988281 298.914062 192.386719 C 298.914062 195.347656 300.011719 197.546875 302.269531 199.046875 C 304.664062 200.585938 307.5 201.386719 310.351562 201.347656 C 312.546875 201.347656 314.742188 200.886719 316.738281 199.988281 C 318.476562 199.289062 319.933594 198.046875 320.933594 196.386719 Z M 320.972656 187.289062 "/>
<path style=" stroke:none;fill-rule:nonzero;fill:rgb(2.352941%,1.568627%,12.156863%);fill-opacity:1;" d="M 365.882812 209.625 C 361.753906 209.625 359.257812 208.226562 358.300781 205.386719 C 355.804688 208.425781 351.8125 209.988281 346.324219 209.988281 C 342.128906 209.988281 338.835938 209.027344 336.542969 207.148438 C 334.304688 205.347656 332.988281 202.585938 333.109375 199.6875 C 333.109375 194.847656 335.582031 191.6875 340.535156 190.25 C 343.6875 189.347656 347.621094 188.886719 352.308594 188.886719 C 353.949219 188.886719 355.542969 189.046875 357.140625 189.289062 L 357.140625 188.25 C 357.199219 186.847656 356.761719 185.429688 355.804688 184.386719 C 354.605469 183.148438 352.351562 182.546875 349.015625 182.546875 C 343.765625 182.546875 339.496094 183.847656 336.140625 186.488281 L 335.84375 186.488281 L 335.84375 178.988281 C 339.894531 176.390625 344.886719 175.050781 350.8125 175.050781 C 355.605469 175.050781 359.195312 175.949219 361.59375 177.789062 C 362.890625 178.789062 363.886719 180.089844 364.488281 181.648438 C 365.085938 183.1875 365.386719 185.25 365.386719 187.886719 C 365.386719 188.6875 365.386719 190.148438 365.324219 192.1875 C 365.285156 194.246094 365.285156 195.6875 365.285156 196.546875 C 365.285156 198.988281 365.386719 200.449219 365.644531 200.949219 C 365.984375 201.886719 366.882812 202.347656 368.277344 202.347656 C 369.175781 202.347656 370.074219 202.246094 370.914062 201.949219 L 370.914062 208.746094 C 369.714844 209.347656 368.039062 209.625 365.882812 209.625 Z M 357.140625 195.386719 C 355.542969 195.148438 353.949219 195.027344 352.351562 195.027344 C 350.015625 194.988281 347.71875 195.1875 345.484375 195.6875 C 342.890625 196.289062 341.53125 197.546875 341.53125 199.546875 C 341.53125 202.1875 343.6875 203.546875 348.019531 203.546875 C 352.109375 203.546875 355.144531 202.347656 357.199219 199.886719 C 357.140625 199.027344 357.140625 197.546875 357.140625 195.386719 Z M 357.140625 195.386719 "/>
<path style=" stroke:none;fill-rule:nonzero;fill:rgb(2.352941%,1.568627%,12.156863%);fill-opacity:1;" d="M 374.625 209.085938 L 374.625 175.988281 L 382.8125 175.988281 L 382.8125 181.589844 C 383.410156 179.949219 384.6875 178.429688 386.601562 177.148438 C 388.640625 175.75 391.074219 175.027344 393.589844 175.148438 C 395.527344 175.148438 397.023438 175.429688 398.121094 176.089844 L 398.121094 184.386719 L 397.863281 184.386719 C 396.265625 183.6875 394.585938 183.347656 392.832031 183.386719 C 390.636719 183.347656 388.480469 183.75 386.484375 184.6875 C 384.945312 185.386719 383.6875 186.6875 383.050781 188.25 L 383.050781 209.085938 Z M 374.625 209.085938 "/>
<path style=" stroke:none;fill-rule:nonzero;fill:rgb(2.352941%,1.568627%,12.156863%);fill-opacity:1;" d="M 401.972656 209.085938 L 401.972656 175.988281 L 410.15625 175.988281 L 410.15625 181.589844 C 410.796875 179.949219 412.035156 178.429688 413.949219 177.148438 C 415.984375 175.75 418.421875 175.027344 420.9375 175.148438 C 422.871094 175.148438 424.371094 175.429688 425.46875 176.089844 L 425.46875 184.386719 L 425.167969 184.386719 C 423.570312 183.6875 421.875 183.347656 420.136719 183.386719 C 417.941406 183.347656 415.785156 183.75 413.789062 184.6875 C 412.234375 185.386719 410.996094 186.6875 410.355469 188.25 L 410.355469 209.085938 Z M 401.972656 209.085938 "/>
<path style=" stroke:none;fill-rule:nonzero;fill:rgb(2.352941%,1.568627%,12.156863%);fill-opacity:1;" d="M 459.140625 205.027344 C 455.546875 208.347656 450.917969 209.988281 445.167969 209.988281 C 439.441406 209.988281 434.789062 208.386719 431.257812 205.148438 C 427.722656 201.886719 425.964844 197.6875 425.964844 192.546875 C 425.964844 187.386719 427.761719 183.1875 431.394531 179.988281 C 434.988281 176.75 439.699219 175.089844 445.367188 175.089844 C 451.277344 175.089844 455.90625 176.6875 459.339844 179.890625 C 462.792969 183.089844 464.53125 187.289062 464.492188 192.546875 C 464.53125 197.585938 462.734375 201.746094 459.140625 205.027344 Z M 453.214844 185.226562 C 451.21875 183.347656 448.683594 182.386719 445.328125 182.386719 C 441.996094 182.386719 439.441406 183.347656 437.34375 185.226562 C 435.308594 187.089844 434.152344 189.75 434.25 192.488281 C 434.152344 195.289062 435.308594 197.949219 437.382812 199.789062 C 439.5 201.628906 442.09375 202.546875 445.289062 202.546875 C 448.5625 202.546875 451.117188 201.585938 453.152344 199.6875 C 455.148438 197.847656 456.265625 195.1875 456.148438 192.488281 C 456.265625 189.789062 455.210938 187.148438 453.214844 185.226562 Z M 453.214844 185.226562 "/>
<path style=" stroke:none;fill-rule:nonzero;fill:rgb(27.843137%,84.313725%,67.45098%);fill-opacity:1;" d="M 142.480469 244.34375 C 129.148438 244.34375 112.179688 235.683594 97.410156 221.144531 C 96.75 222.984375 95.972656 224.785156 95.113281 226.546875 C 90.023438 236.945312 82.679688 242.625 74.515625 242.625 C 66.332031 242.625 58.886719 237.023438 53.695312 226.886719 C 48.945312 217.625 46.347656 205.1875 46.347656 191.886719 C 46.347656 170.230469 53.496094 151.929688 65.03125 144.191406 C 73.015625 138.792969 83.039062 138.132812 94.054688 142.230469 C 103.398438 145.691406 113.476562 152.628906 123.359375 162.429688 C 124.257812 160.089844 125.316406 157.789062 126.550781 155.589844 C 131.742188 146.390625 138.96875 141.351562 146.914062 141.351562 C 162.722656 141.351562 174.660156 163.089844 174.660156 191.949219 C 174.660156 204.425781 172.363281 215.945312 168.070312 225.1875 C 166.175781 229.386719 163.640625 233.183594 160.527344 236.546875 C 157.792969 239.546875 154.339844 241.785156 150.503906 243.125 C 147.871094 243.984375 145.214844 244.386719 142.480469 244.34375 Z M 99.503906 214.488281 C 118.070312 233.984375 138.03125 240.785156 148.550781 237.285156 C 153.9375 235.484375 158.890625 230.285156 162.480469 222.585938 C 166.414062 214.1875 168.46875 203.585938 168.46875 191.988281 C 168.46875 179.6875 166.113281 168.289062 161.824219 159.890625 C 157.792969 151.949219 152.5 147.589844 146.914062 147.589844 C 138.867188 147.589844 131.882812 155.648438 128.148438 167.550781 C 143.121094 184.027344 152.941406 204.289062 152.101562 217.226562 C 151.804688 221.886719 150.105469 225.585938 147.210938 227.945312 L 146.953125 228.125 C 143.757812 230.285156 140.027344 230.386719 136.375 228.425781 C 126.851562 223.347656 119.105469 204.789062 119.105469 187.089844 C 119.105469 181.089844 119.804688 175.089844 121.203125 169.230469 C 100.941406 148.152344 81.339844 140.75 68.40625 149.429688 C 58.726562 155.992188 52.496094 172.6875 52.496094 192.027344 C 52.496094 217.027344 62.117188 236.585938 74.453125 236.585938 C 82.140625 236.585938 88.765625 228.585938 92.558594 216.226562 C 82.636719 205.1875 75.191406 192.828125 71.5 181.390625 C 67.867188 170.1875 68.304688 161.128906 72.597656 156.589844 C 75.390625 153.628906 79.542969 152.929688 83.9375 154.691406 C 93.019531 158.332031 102.199219 172.128906 102.199219 191.386719 C 102.300781 199.148438 101.402344 206.945312 99.503906 214.488281 Z M 126.394531 174.828125 C 125.714844 178.828125 125.355469 182.949219 125.355469 187.027344 C 125.355469 203.789062 132.738281 219.386719 139.328125 222.945312 C 141.324219 223.984375 142.582031 223.585938 143.417969 223.027344 C 144.917969 221.785156 145.714844 219.6875 145.914062 216.785156 C 146.652344 206.289062 138.570312 189.347656 126.394531 174.828125 Z M 79.40625 159.828125 C 78.546875 159.789062 77.6875 160.148438 77.148438 160.789062 C 75.152344 162.828125 74.054688 168.988281 77.449219 179.390625 C 80.542969 188.949219 86.53125 199.289062 94.515625 208.828125 C 95.613281 203.085938 96.171875 197.1875 96.113281 191.328125 C 96.113281 172.988281 87.269531 162.628906 81.738281 160.390625 C 81 160.050781 80.183594 159.890625 79.40625 159.828125 Z M 79.40625 159.828125 "/>
</g>
</svg>
