<?xml version="1.0" standalone="no"?>
<!DOCTYPE svg PUBLIC "-//W3C//DTD SVG 20010904//EN"
 "http://www.w3.org/TR/2001/REC-SVG-20010904/DTD/svg10.dtd">
<svg version="1.0" xmlns="http://www.w3.org/2000/svg"
 width="2560.000000pt" height="578.000000pt" viewBox="0 0 2560.000000 578.000000"
 preserveAspectRatio="xMidYMid meet">

<g transform="translate(0.000000,578.000000) scale(0.100000,-0.100000)"
fill="#000000" stroke="none">
<path d="M17627 5733 c-4 -3 -7 -214 -7 -468 l0 -463 858 -7 c926 -8 6512 1
6883 12 l227 6 7 242 c4 133 3 340 -1 461 l-9 219 -3976 3 c-2187 1 -3979 -1
-3982 -5z"/>
<path d="M16417 5686 c-16 -99 -110 -270 -195 -355 -191 -190 -451 -303 -749
-326 l-93 -7 0 -319 0 -319 460 0 460 0 0 -1480 0 -1480 465 0 465 0 0 638 c0
350 -3 1322 -7 2160 l-6 1522 -397 0 -397 0 -6 -34z"/>
<path d="M11379 4673 c-15 -6 -34 -22 -42 -35 -17 -26 -1327 -3499 -1327
-3517 0 -8 170 -11 659 -11 l659 0 31 26 c17 14 31 31 31 36 0 6 150 453 334
992 184 540 340 1000 347 1024 7 23 15 39 19 35 4 -4 54 -145 110 -313 352
-1039 597 -1750 611 -1771 l16 -24 687 -3 686 -2 -6 32 c-10 57 -1335 3492
-1355 3513 -19 20 -36 20 -726 25 -526 4 -713 2 -734 -7z"/>
<path d="M4419 4665 c-19 -10 -36 -37 -57 -87 -109 -264 -1292 -3432 -1292
-3461 0 -4 301 -6 670 -5 660 3 670 3 690 24 14 13 126 337 334 960 316 947
373 1112 386 1127 4 4 17 -23 28 -60 12 -37 170 -504 351 -1038 274 -807 334
-974 356 -992 l26 -23 670 0 c565 0 669 2 669 14 0 8 -18 59 -39 114 -22 54
-326 841 -676 1748 -486 1260 -642 1654 -661 1672 l-25 22 -702 0 c-591 -1
-706 -3 -728 -15z"/>
<path d="M0 4140 l0 -530 505 0 505 0 0 -1255 0 -1255 715 0 715 0 0 1260 0
1260 485 0 485 0 0 525 0 525 -1705 0 -1705 0 0 -530z"/>
<path d="M8172 4663 l-1222 -3 2 -523 3 -522 502 -3 503 -2 2 -1253 3 -1252
708 -3 707 -2 0 1260 0 1260 490 0 490 0 0 525 0 525 -482 -2 c-266 -2 -1033
-4 -1706 -5z"/>
<path d="M21030 4494 c-271 -35 -476 -125 -645 -285 -38 -37 -88 -92 -110
-123 -22 -30 -43 -56 -47 -56 -4 0 -14 13 -22 28 -52 100 -188 234 -306 300
-125 70 -373 132 -530 132 -152 0 -373 -51 -515 -119 -100 -48 -227 -143 -295
-221 -29 -33 -56 -60 -61 -60 -5 0 -9 68 -9 150 l0 150 -425 0 -425 0 0 -1495
0 -1495 455 0 455 0 0 940 c0 937 0 939 22 997 28 77 61 127 120 185 136 132
373 166 558 80 69 -32 157 -120 192 -192 58 -121 58 -125 58 -1110 l0 -900
450 0 450 0 0 908 c0 1000 -2 963 63 1086 107 204 327 296 562 236 166 -42
272 -151 313 -319 14 -58 16 -182 19 -988 l4 -923 434 0 435 0 2 993 c1 545 0
1030 -1 1077 -4 116 -35 293 -66 376 -121 322 -406 551 -782 629 -78 16 -286
27 -353 19z"/>
<path d="M23695 4434 c-368 -57 -694 -263 -900 -569 -75 -111 -178 -329 -214
-452 -91 -311 -82 -606 30 -953 167 -517 621 -876 1189 -941 184 -21 450 9
600 68 84 33 215 120 268 177 24 26 45 46 47 46 10 0 4 -200 -9 -301 -31 -226
-83 -346 -206 -470 -141 -143 -270 -191 -510 -193 -127 -1 -154 2 -215 22
-194 64 -350 220 -406 405 -12 37 -26 67 -32 67 -7 0 -185 -50 -397 -110 -212
-61 -387 -110 -389 -110 -12 0 10 -136 33 -199 83 -237 281 -479 513 -627 279
-180 704 -276 1079 -245 478 40 824 199 1050 485 194 244 328 586 364 927 6
57 10 652 10 1512 l0 1417 -435 0 -435 0 0 -135 c0 -74 -1 -135 -3 -135 -1 0
-33 29 -69 65 -74 72 -173 139 -264 177 -183 78 -470 107 -699 72z m530 -799
c174 -44 324 -160 403 -312 54 -105 74 -191 74 -328 0 -213 -55 -360 -181
-486 -120 -120 -229 -166 -417 -176 -205 -11 -352 43 -484 176 -128 129 -180
262 -180 460 0 136 20 225 71 331 79 160 244 290 424 334 80 19 217 20 290 1z"/>
<path d="M16310 535 l0 -465 2965 0 2965 0 0 465 0 465 -2965 0 -2965 0 0
-465z"/>
</g>
</svg>
